<svg width="71" height="20" viewBox="0 0 71 20" fill="none" xmlns="http://www.w3.org/2000/svg">
<path d="M13.7607 8.93271H7.92446C7.77407 8.93271 7.6526 9.05351 7.6526 9.20306V12.0408C7.6526 12.1904 7.77407 12.3131 7.92446 12.3131H10.2015V15.8392C10.2015 15.8392 9.69056 16.0118 8.2773 16.0118C6.60952 16.0118 4.28043 15.4059 4.28043 10.3132C4.28043 5.2206 6.70593 4.54951 8.98297 4.54951C10.9534 4.54951 11.8037 4.89464 12.3436 5.06146C12.5132 5.11323 12.6694 4.9445 12.6694 4.79494L13.3211 2.05304C13.3211 1.9821 13.298 1.89773 13.217 1.84213C12.9972 1.68682 11.6591 0.940943 8.2773 0.940943C4.38261 0.939025 0.385742 2.588 0.385742 10.5107C0.385742 18.4335 4.96103 19.6146 8.81715 19.6146C12.01 19.6146 13.9458 18.2571 13.9458 18.2571C14.0248 18.213 14.0345 18.1018 14.0345 18.0519V9.20306C14.0345 9.05351 13.913 8.93271 13.7626 8.93271H13.7607Z" stroke="white" stroke-width="0.8" stroke-miterlimit="10"/>
<path d="M43.8363 1.88814C43.8363 1.73666 43.7168 1.61587 43.5664 1.61587H40.281C40.1306 1.61587 40.0091 1.73858 40.0091 1.88814V8.20217H34.8882V1.88814C34.8882 1.73666 34.7667 1.61587 34.6164 1.61587H31.3309C31.1806 1.61587 31.0591 1.73858 31.0591 1.88814V18.9876C31.0591 19.1391 31.1806 19.2618 31.3309 19.2618H34.6164C34.7667 19.2618 34.8882 19.1391 34.8882 18.9876V11.6746H40.0091L39.9995 18.9876C39.9995 19.1391 40.121 19.2618 40.2714 19.2618H43.5645C43.7149 19.2618 43.8344 19.1391 43.8363 18.9876V1.88814Z" stroke="white" stroke-width="0.8" stroke-miterlimit="10"/>
<path d="M19.9615 4.13151C19.9615 2.95422 19.0129 2.00319 17.8426 2.00319C16.6722 2.00319 15.7236 2.95422 15.7236 4.13151C15.7236 5.3088 16.6722 6.25984 17.8426 6.25984C19.0129 6.25984 19.9615 5.30689 19.9615 4.13151Z" stroke="white" stroke-width="0.8" stroke-miterlimit="10"/>
<path d="M19.7261 15.381V7.4889C19.7261 7.33934 19.6046 7.21663 19.4542 7.21663H16.1784C16.028 7.21663 15.8931 7.37002 15.8931 7.5215V18.8304C15.8931 19.1621 16.1013 19.2618 16.3712 19.2618H19.3231C19.647 19.2618 19.7261 19.1046 19.7261 18.8246V15.3829V15.381Z" stroke="white" stroke-width="0.8" stroke-miterlimit="10"/>
<path d="M56.3225 7.24155H53.0621C52.9117 7.24155 52.7903 7.36427 52.7903 7.51574V15.9006C52.7903 15.9006 51.9612 16.5026 50.787 16.5026C49.6128 16.5026 49.2986 15.9715 49.2986 14.8268V7.51574C49.2986 7.36427 49.1771 7.24155 49.0267 7.24155H45.7181C45.5697 7.24155 45.4463 7.36427 45.4463 7.51574V15.381C45.4463 18.7805 47.3512 19.6127 49.9734 19.6127C52.1232 19.6127 53.8584 18.4316 53.8584 18.4316C53.8584 18.4316 53.9413 19.0547 53.978 19.1276C54.0146 19.2004 54.1129 19.2752 54.217 19.2752L56.3225 19.2656C56.4709 19.2656 56.5943 19.1429 56.5943 18.9934V7.51574C56.5943 7.36427 56.4709 7.24155 56.3205 7.24155H56.3225Z" stroke="white" stroke-width="0.8" stroke-miterlimit="10"/>
<path d="M65.2363 6.85615C63.3834 6.85615 62.1244 7.67872 62.1244 7.67872V1.88814C62.1244 1.73666 62.0029 1.61587 61.8526 1.61587H58.5575C58.4071 1.61587 58.2856 1.73858 58.2856 1.88814V18.9876C58.2856 19.1391 58.4071 19.2618 58.5575 19.2618H60.8442C60.9464 19.2618 61.0254 19.2081 61.0833 19.1161C61.1392 19.024 61.2221 18.328 61.2221 18.328C61.2221 18.328 62.5698 19.5973 65.1206 19.5973C68.1149 19.5973 69.8328 18.0864 69.8328 12.8155C69.8328 7.5445 67.0892 6.85615 65.2363 6.85615ZM63.9503 16.4892C62.8185 16.4547 62.0531 15.9447 62.0531 15.9447V10.5299C62.0531 10.5299 62.8089 10.0678 63.7382 9.98536C64.9124 9.87991 66.0442 10.2327 66.0442 13.0187C66.0442 15.9562 65.5332 16.5352 63.9522 16.4892H63.9503Z" stroke="white" stroke-width="0.8" stroke-miterlimit="10"/>
<path d="M29.1699 7.21279H26.7058C26.7058 7.21279 26.702 3.9762 26.702 3.97429C26.702 3.85157 26.6384 3.79021 26.4957 3.79021H23.137C23.0059 3.79021 22.9365 3.84774 22.9365 3.97237V7.31825C22.9365 7.31825 21.2533 7.72282 21.1395 7.75542C21.0258 7.78802 20.9429 7.89156 20.9429 8.01619V10.1196C20.9429 10.2711 21.0643 10.3919 21.2147 10.3919H22.9365V15.45C22.9365 19.2081 25.5876 19.5763 27.3749 19.5763C28.1924 19.5763 29.1699 19.3155 29.3319 19.256C29.4302 19.2196 29.4861 19.1199 29.4861 19.0106V16.6982C29.488 16.5467 29.3608 16.4259 29.2162 16.4259C29.0716 16.4259 28.7052 16.4835 28.3273 16.4835C27.1165 16.4835 26.7058 15.9236 26.7058 15.1988C26.7058 14.474 26.7058 10.3919 26.7058 10.3919H29.1699C29.3203 10.3919 29.4418 10.2691 29.4418 10.1196V7.48506C29.4418 7.33359 29.3203 7.21279 29.1699 7.21279Z" stroke="white" stroke-width="0.8" stroke-miterlimit="10"/>
</svg>
