<svg width="76" height="77" viewBox="0 0 76 77" fill="none" xmlns="http://www.w3.org/2000/svg">
<g id="Icon 1" clip-path="url(#clip0_739_49)">
<g id="Layer 1">
<path id="Vector" d="M62.4561 65.2513C61.5365 60.7347 57.5661 57.4553 53.0139 57.4553C49.0872 57.4601 45.5891 59.8412 44.1019 63.5229L43.4154 65.2212L41.6718 64.7254C39.2698 64.0442 36.7302 64.0442 34.3282 64.7254L32.5893 65.2197L31.9012 63.5277C30.3703 59.7715 26.7751 57.4965 22.9923 57.4965C21.771 57.4965 20.5309 57.7326 19.3347 58.2332C16.9593 59.2265 15.1062 61.0975 14.1194 63.5008C13.1311 65.9056 13.128 68.556 14.1085 70.9625C15.0874 73.3705 16.9342 75.2463 19.3081 76.2475C21.6819 77.2471 24.2981 77.2503 26.6735 76.2586C29.6369 75.0197 31.7886 72.382 32.4329 69.2008L32.6612 68.0697L33.734 67.6768C35.0835 67.1825 36.4941 66.9069 37.9281 66.8562L38 66.853L38.0704 66.8562C39.5044 66.9069 40.9165 67.1825 42.2676 67.6768L43.3372 68.0681L43.5671 69.1977C44.0878 71.753 45.5593 73.9504 47.7111 75.3857C49.8629 76.8194 52.4369 77.32 54.9593 76.7925C57.4832 76.2649 59.6522 74.7742 61.0674 72.5943C62.4842 70.4144 62.9768 67.8067 62.4561 65.2513ZM22.9877 74.3528C19.1079 74.3528 15.9506 71.1558 15.9506 67.2237C15.9506 63.2916 19.1079 60.0947 22.9877 60.0947C26.8674 60.0947 30.0247 63.2932 30.0247 67.2237C30.0247 71.1542 26.8674 74.3528 22.9877 74.3528ZM53.0123 74.3528C49.1326 74.3528 45.9753 71.1558 45.9753 67.2237C45.9753 63.2916 49.1326 60.0947 53.0123 60.0947C56.8921 60.0947 60.0494 63.2932 60.0494 67.2237C60.0494 71.1542 56.8921 74.3528 53.0123 74.3528ZM63.9588 29.2117L62.6202 28.757L62.5733 27.328C62.2277 16.7152 59.6146 8.62614 55.0156 3.93365C51.5784 0.427743 48.1834 0.0126739 48.149 0.00950539L48.1286 0.00633693C48.0989 0.00316846 48.0692 0.00158423 48.0395 0C45.55 0.110896 43.1574 0.936281 41.1182 2.38902C39.2526 3.71186 36.7505 3.71186 34.8896 2.39219C32.8473 0.937865 30.4563 0.11248 27.9683 0C27.9417 0.00158423 27.9151 0.00316846 27.8901 0.00633693L27.8667 0.00950539C27.8354 0.0126739 24.442 0.427743 21.0079 3.93365C16.4104 8.62614 13.7942 16.7152 13.4439 27.328L13.3954 28.7586L12.0568 29.2132C4.50683 31.7702 0 35.2397 0 38.4968C0 40.8367 0.910123 42.7267 2.78354 44.2745C4.63506 45.8049 7.46239 47.0343 11.1889 47.9294C18.6122 49.71 28.4625 49.9556 38 49.9556C47.5375 49.9556 57.3878 49.71 64.8111 47.9294C68.5376 47.0343 71.3649 45.8049 73.2165 44.2745C75.0899 42.7267 76 40.8367 76 38.4968C76 35.246 71.4979 31.7749 63.9588 29.2117ZM15.9741 27.846C16.193 18.9601 17.9288 12.178 21.1314 7.68828C23.7649 3.99702 26.6047 2.97994 27.7025 2.71379L28.0434 2.63141L28.3937 2.66943C30.1811 2.86429 31.9059 3.51541 33.3853 4.54991C36.1485 6.50169 39.8546 6.50327 42.6116 4.55467C44.0863 3.52333 45.7986 2.87221 47.5704 2.66943L47.9238 2.62982L48.2694 2.71379C49.3859 2.98311 52.2695 4.01444 54.9217 7.77224C58.0915 12.2604 59.8086 19.0124 60.0259 27.8429L60.0588 29.2148L58.8234 29.7741C52.9201 32.4498 46.4444 33.8424 39.9751 33.8424C39.3167 33.8424 38.6584 33.8281 38 33.7996C30.8816 34.1133 23.6835 32.7223 17.1782 29.7788L15.9412 29.218L15.9741 27.846ZM73.3932 38.4968C73.3932 44.5961 62.4779 47.3163 38 47.3163C25.5007 47.3163 16.2384 46.5574 10.4711 45.0619C8.53045 44.5597 2.62716 43.0293 2.56617 38.8042L2.55366 37.9233L3.17449 37.3055C6.08 34.4127 9.71111 32.388 13.6784 31.4486L14.3884 31.2807L15.0421 31.6086C22.1151 35.1525 30.0184 36.8223 37.903 36.4405L38 36.4342L38.097 36.4405C45.9784 36.8223 53.8849 35.1525 60.9579 31.6086L61.6272 31.2727L62.3528 31.4565C66.1669 32.4229 69.7464 34.3208 72.702 36.949L73.3932 37.5637V38.4968Z" fill="white"/>
</g>
</g>
<defs>
<clipPath id="clip0_739_49">
<rect width="76" height="77" fill="white"/>
</clipPath>
</defs>
</svg>
