<svg width="237" height="36" viewBox="0 0 237 36" fill="none" xmlns="http://www.w3.org/2000/svg">
<path d="M43.2072 21.6977C43.2072 24.5808 41.1079 27.0216 38.3318 27.3623C38.1342 27.3929 37.9119 27.4081 37.66 27.4081H29.1934L21.4925 18.8348L13.7866 27.4081H8.23935L21.4875 12.6515L29.5935 21.6824L30.9717 23.213H37.655C38.4651 23.213 39.127 22.5316 39.127 21.6926C39.127 21.6671 39.127 21.6468 39.127 21.6265C39.0974 20.8129 38.4454 20.1772 37.66 20.1772H32.3103L28.5463 15.9821H37.66C40.688 15.9821 43.1726 18.5145 43.2072 21.6417C43.2072 21.6621 43.2072 21.6773 43.2072 21.6977Z" fill="white"/>
<path d="M51.3577 0V27.4132H47.2627V4.21546H4.09498V23.2079H7.91334L4.1345 27.4132H0V0H51.3577Z" fill="white"/>
<path d="M236.071 6.46303C236.689 7.09865 237 7.88174 237 8.81229C237 9.74285 236.689 10.5259 236.071 11.1616C235.454 11.7972 234.693 12.1175 233.789 12.1175C232.885 12.1175 232.125 11.7972 231.507 11.1616C230.89 10.5259 230.578 9.74285 230.578 8.81229C230.578 7.88174 230.89 7.09865 231.507 6.46303C232.125 5.8274 232.885 5.50705 233.789 5.50705C234.693 5.50705 235.454 5.8274 236.071 6.46303ZM235.721 10.826C236.239 10.2768 236.496 9.60555 236.496 8.81229C236.496 8.01904 236.239 7.34782 235.721 6.79864C235.202 6.24946 234.56 5.97487 233.784 5.97487C233.009 5.97487 232.367 6.24946 231.853 6.79864C231.334 7.34782 231.077 8.01904 231.077 8.81229C231.077 9.60555 231.334 10.2768 231.853 10.826C232.372 11.3751 233.014 11.6497 233.784 11.6497C234.555 11.6497 235.202 11.3751 235.721 10.826ZM235.464 8.12074H235.024C234.975 7.84615 234.846 7.62241 234.639 7.44952C234.436 7.27663 234.179 7.1851 233.873 7.18001C233.424 7.18001 233.073 7.33256 232.826 7.63766C232.574 7.94276 232.451 8.3343 232.451 8.81738C232.451 9.30045 232.574 9.692 232.826 9.9971C233.078 10.3022 233.424 10.4547 233.873 10.4547C234.179 10.4547 234.431 10.3683 234.639 10.1903C234.841 10.0174 234.97 9.78861 235.024 9.50894H235.464C235.409 9.93099 235.237 10.2564 234.94 10.4954C234.644 10.7344 234.283 10.8514 233.863 10.8514C233.29 10.8514 232.831 10.6632 232.495 10.2819C232.159 9.90048 231.991 9.41232 231.991 8.81738C231.991 8.22243 232.159 7.72919 232.495 7.3529C232.831 6.97153 233.29 6.78338 233.863 6.78338C234.283 6.78338 234.644 6.90034 234.94 7.13933C235.237 7.37833 235.409 7.70377 235.464 8.12582V8.12074Z" fill="white"/>
<path d="M60.9949 27.2708C60.3725 26.6098 60.0564 25.7707 60.0564 24.7486C60.0564 23.1977 60.7578 22.0231 62.1607 21.2197C63.5636 20.4162 65.248 19.9738 67.2189 19.8874V18.5145C67.2189 16.9127 66.636 16.1092 65.4703 16.1092C64.7145 16.1092 64.102 16.3584 63.6228 16.8517C63.8303 17.1008 63.9291 17.4313 63.9291 17.8585C63.9291 18.2856 63.7858 18.6619 63.5043 18.9924C63.2227 19.328 62.8078 19.4959 62.2595 19.4959C61.7458 19.4959 61.3456 19.323 61.0542 18.9823C60.7628 18.6365 60.6195 18.2094 60.6195 17.7009C60.6195 17.0144 60.8566 16.4042 61.3407 15.8753C61.8199 15.3465 62.4719 14.9346 63.3067 14.6448C64.1366 14.3549 65.0504 14.2075 66.0433 14.2075C69.2096 14.2075 70.7952 15.8906 70.7952 19.2569L70.7705 23.5893C70.7705 24.4334 70.7359 25.2114 70.6668 25.9131C71.2299 25.8623 71.7881 25.8318 72.3364 25.8318V27.8403H67.4856C67.4511 27.6115 67.4165 27.2047 67.3819 26.625H67.3572C66.3149 27.7183 65.0455 28.2624 63.5586 28.2624C62.4818 28.2624 61.6272 27.9319 61.0048 27.2708H60.9949ZM67.1942 24.7181V21.7587C66.1865 21.8655 65.3517 22.1299 64.6898 22.5519C64.0279 22.974 63.7019 23.5486 63.7019 24.2707C63.7019 24.7487 63.8451 25.0995 64.1267 25.3283C64.4082 25.5572 64.754 25.6741 65.1689 25.6741C65.9395 25.6741 66.6163 25.3588 67.1991 24.7232L67.1942 24.7181Z" fill="white"/>
<path d="M73.7936 26.1216C74.4456 26.1216 74.8606 25.9385 75.0384 25.5673C75.2162 25.1961 75.3101 24.5961 75.3101 23.7723V19.3331C75.3101 18.5399 75.3447 17.7924 75.4138 17.0856L73.6158 17.1669V15.1584C74.6926 15.1584 75.5669 15.077 76.2338 14.9194C76.9006 14.7617 77.3452 14.5736 77.5675 14.3651H78.8271C78.8617 14.6295 78.8864 14.9753 78.9061 15.3974C78.921 15.8194 78.9308 16.2364 78.9308 16.6381H78.9802C80.146 15.016 81.376 14.2075 82.6751 14.2075C83.3271 14.2075 83.8606 14.3905 84.2805 14.7617C84.7004 15.1329 84.9078 15.677 84.9078 16.3991C84.9078 16.8567 84.7646 17.2788 84.4731 17.6653C84.1817 18.0517 83.747 18.2449 83.1641 18.2449C82.7344 18.2449 82.354 18.1331 82.0231 17.8992C81.6872 17.6703 81.4945 17.2737 81.4451 16.7093C80.966 16.7093 80.472 16.994 79.9682 17.5686C79.4643 18.1432 79.1235 18.7077 78.9555 19.2721V23.5791C78.9555 24.4232 78.921 25.2012 78.8518 25.9029C79.4001 25.8521 79.9533 25.8216 80.5214 25.8216V27.8302H73.7936V26.1114V26.1216Z" fill="white"/>
<path d="M87.1998 23.1876L87.2492 16.8161H85.5055V14.6244C86.0538 14.6244 86.5725 14.4465 87.0566 14.0956C87.5456 13.7447 87.9605 13.3125 88.3014 12.7989C88.6422 12.2904 88.8843 11.7921 89.0226 11.3192H90.9243L90.8996 14.6244H94.1598V16.6584L90.8996 16.7398L90.8749 23.2435C90.8749 24.952 91.3887 25.8063 92.4161 25.8063C93.2361 25.8063 94.0166 25.2775 94.7526 24.2198L95.9875 25.4097C95.1823 26.625 94.3772 27.403 93.572 27.7488C92.7668 28.0946 91.9814 28.2624 91.2108 28.2624C88.5385 28.2624 87.2048 26.5691 87.2048 23.1876H87.1998Z" fill="white"/>
<path d="M97.3755 27.2708C96.7531 26.6098 96.437 25.7707 96.437 24.7486C96.437 23.1977 97.1384 22.0231 98.5413 21.2197C99.9442 20.4162 101.629 19.9738 103.6 19.8874V18.5145C103.6 16.9127 103.017 16.1092 101.851 16.1092C101.095 16.1092 100.483 16.3584 100.003 16.8517C100.211 17.1008 100.31 17.4313 100.31 17.8585C100.31 18.2856 100.166 18.6619 99.8849 18.9924C99.6033 19.328 99.1884 19.4959 98.6401 19.4959C98.1264 19.4959 97.7263 19.323 97.4348 18.9823C97.1434 18.6365 97.0001 18.2094 97.0001 17.7009C97.0001 17.0144 97.2372 16.4042 97.7213 15.8753C98.2005 15.3465 98.8525 14.9346 99.6873 14.6448C100.517 14.3549 101.431 14.2075 102.424 14.2075C105.59 14.2075 107.176 15.8906 107.176 19.2569L107.151 23.5893C107.151 24.4334 107.117 25.2114 107.047 25.9131C107.611 25.8623 108.169 25.8318 108.717 25.8318V27.8403H103.866C103.832 27.6115 103.797 27.2047 103.763 26.625H103.738C102.696 27.7183 101.426 28.2624 99.9392 28.2624C98.8624 28.2624 98.0078 27.9319 97.3854 27.2708H97.3755ZM103.575 24.7181V21.7587C102.567 21.8655 101.732 22.1299 101.07 22.5519C100.408 22.974 100.082 23.5486 100.082 24.2707C100.082 24.7487 100.226 25.0995 100.507 25.3283C100.789 25.5572 101.135 25.6741 101.55 25.6741C102.32 25.6741 102.997 25.3588 103.58 24.7232L103.575 24.7181Z" fill="white"/>
<path d="M110.174 26.1216C110.826 26.1216 111.241 25.9385 111.419 25.5673C111.597 25.1961 111.691 24.5961 111.691 23.7723V19.3331C111.691 18.5399 111.725 17.7924 111.794 17.0856L109.996 17.1669V15.1584C111.073 15.1584 111.948 15.077 112.614 14.9194C113.281 14.7617 113.726 14.5736 113.948 14.3651H115.208C115.208 14.4007 115.242 14.8431 115.311 15.6872H115.361C115.855 15.2804 116.467 14.9346 117.198 14.6448C117.929 14.3549 118.547 14.2075 119.061 14.2075C120.617 14.2075 121.733 14.6651 122.4 15.5804C123.067 16.4957 123.403 17.9856 123.403 20.045V23.5842C123.403 24.4283 123.368 25.2063 123.299 25.908C123.862 25.8572 124.42 25.8267 124.968 25.8267V27.8352H118.241V26.1165C118.893 26.1165 119.313 25.9335 119.5 25.5623C119.688 25.191 119.782 24.591 119.782 23.7672L119.757 20.0145C119.757 18.8501 119.599 17.9958 119.283 17.4517C118.967 16.9076 118.433 16.633 117.678 16.633C117.268 16.633 116.848 16.7245 116.418 16.9127C115.988 17.0957 115.633 17.3296 115.341 17.6144V23.5893C115.341 24.4334 115.307 25.2114 115.237 25.9131C115.786 25.8623 116.339 25.8318 116.907 25.8318V27.8403H110.179V26.1216H110.174Z" fill="white"/>
<path d="M137.945 27.9013C137.268 27.6624 136.666 27.2556 136.132 26.6708H136.107L135.362 27.8352H133.82V12.9006C133.82 11.8785 133.845 11.1107 133.899 10.6022L132.101 10.6836V8.67499C133.178 8.67499 134.053 8.59363 134.719 8.436C135.386 8.27836 135.831 8.09022 136.053 7.88173H137.441V15.6262C138.483 14.6753 139.639 14.1973 140.909 14.1973C141.936 14.1973 142.84 14.4719 143.616 15.016C144.396 15.5601 145.004 16.3432 145.438 17.3551C145.873 18.367 146.095 19.5467 146.095 20.8841C146.095 22.3129 145.844 23.5791 145.34 24.6876C144.836 25.7962 144.11 26.6708 143.171 27.3064C142.228 27.942 141.126 28.2573 139.857 28.2573C139.259 28.2573 138.622 28.1403 137.945 27.9013ZM141.64 24.9012C142.094 23.9503 142.322 22.7452 142.322 21.2807C142.322 19.9789 142.094 18.8653 141.64 17.95C141.185 17.0347 140.504 16.5771 139.6 16.5771C139.17 16.5771 138.765 16.6788 138.38 16.8822C137.994 17.0856 137.683 17.3602 137.441 17.7161V23.874C137.441 24.7385 137.634 25.3639 138.019 25.7504C138.404 26.1369 138.869 26.3301 139.417 26.3301C140.444 26.3301 141.185 25.8521 141.64 24.9012Z" fill="white"/>
<path d="M148.625 27.2708C148.002 26.6098 147.686 25.7707 147.686 24.7486C147.686 23.1977 148.387 22.0231 149.79 21.2197C151.193 20.4162 152.878 19.9738 154.848 19.8874V18.5145C154.848 16.9127 154.266 16.1092 153.1 16.1092C152.344 16.1092 151.732 16.3584 151.252 16.8517C151.46 17.1008 151.559 17.4313 151.559 17.8585C151.559 18.2856 151.415 18.6619 151.134 18.9924C150.852 19.328 150.437 19.4959 149.889 19.4959C149.375 19.4959 148.975 19.323 148.684 18.9823C148.392 18.6365 148.249 18.2094 148.249 17.7009C148.249 17.0144 148.486 16.4042 148.97 15.8753C149.449 15.3465 150.101 14.9346 150.936 14.6448C151.766 14.3549 152.68 14.2075 153.673 14.2075C156.839 14.2075 158.425 15.8906 158.425 19.2569L158.4 23.5893C158.4 24.4334 158.366 25.2114 158.296 25.9131C158.859 25.8623 159.418 25.8318 159.966 25.8318V27.8403H155.115C155.081 27.6115 155.046 27.2047 155.012 26.625H154.987C153.945 27.7183 152.675 28.2624 151.188 28.2624C150.111 28.2624 149.257 27.9319 148.634 27.2708H148.625ZM154.824 24.7181V21.7587C153.816 21.8655 152.981 22.1299 152.319 22.5519C151.657 22.974 151.331 23.5486 151.331 24.2707C151.331 24.7487 151.475 25.0995 151.756 25.3283C152.038 25.5572 152.384 25.6741 152.799 25.6741C153.569 25.6741 154.246 25.3588 154.829 24.7232L154.824 24.7181Z" fill="white"/>
<path d="M158.83 34.3644C158.351 33.9423 158.109 33.4287 158.109 32.8338C158.109 32.3405 158.257 31.9185 158.558 31.5676C158.859 31.2168 159.265 31.0388 159.778 31.0388C160.223 31.0388 160.588 31.1863 160.87 31.4761C161.151 31.7659 161.295 32.1422 161.295 32.5999C161.295 32.6863 161.275 32.8389 161.245 33.0474C161.295 33.083 161.364 33.1084 161.453 33.1287C161.537 33.144 161.616 33.1541 161.685 33.1541C162.406 33.1541 162.762 32.4931 162.762 31.171L162.683 19.384C162.683 18.5551 162.717 17.7873 162.787 17.0856L160.988 17.1669V15.1584C162.065 15.1584 162.94 15.077 163.607 14.9194C164.273 14.7617 164.718 14.5736 164.94 14.3651H166.328V27.7895C166.328 30.1489 165.829 31.9439 164.827 33.1694C163.824 34.3949 162.52 35.0051 160.909 35.0051C160.001 35.0051 159.309 34.7915 158.83 34.3695V34.3644ZM163.221 11.3853C162.846 10.9734 162.658 10.4649 162.658 9.86488C162.658 9.26485 162.856 8.75127 163.251 8.31904C163.646 7.88682 164.105 7.67325 164.639 7.67325C165.172 7.67325 165.647 7.88682 166.012 8.30887C166.378 8.73093 166.565 9.2496 166.565 9.86996C166.565 10.4903 166.388 10.9988 166.037 11.4056C165.686 11.8124 165.227 12.0158 164.664 12.0158C164.1 12.0158 163.602 11.8073 163.226 11.3955L163.221 11.3853Z" fill="white"/>
<path d="M175.882 32.8592C176.534 32.8592 176.949 32.6762 177.126 32.305C177.304 31.9337 177.398 31.3337 177.398 30.5099L177.423 26.7826H177.398C176.425 27.7691 175.269 28.2624 173.93 28.2624C172.903 28.2624 171.999 27.9878 171.223 27.4437C170.448 26.8996 169.835 26.1165 169.401 25.1046C168.966 24.0927 168.744 22.913 168.744 21.5756C168.744 20.1671 169.01 18.9009 169.539 17.7822C170.068 16.6635 170.823 15.7889 171.796 15.1533C172.775 14.5176 173.891 14.2024 175.16 14.2024C175.674 14.2024 176.129 14.238 176.519 14.3092C176.914 14.3804 177.349 14.477 177.828 14.599C178.272 14.721 178.579 14.7821 178.752 14.7821C178.89 14.7821 179.048 14.7414 179.226 14.6651C179.404 14.5838 179.547 14.4871 179.651 14.36H181.039V30.3218C181.039 31.1659 181.004 31.9439 180.935 32.6456C181.483 32.5948 182.041 32.5643 182.604 32.5643V34.5729H175.877V32.8541L175.882 32.8592ZM176.484 25.5368C176.87 25.308 177.171 25.008 177.393 24.6368V18.4534C177.393 17.5737 177.2 16.9635 176.815 16.6279C176.43 16.2923 175.966 16.1245 175.417 16.1245C174.41 16.1448 173.669 16.6025 173.209 17.5127C172.745 18.4229 172.518 19.5518 172.518 20.9095C172.518 22.2672 172.74 23.4113 173.185 24.3978C173.629 25.3843 174.321 25.8775 175.264 25.8775C175.694 25.8775 176.099 25.7606 176.484 25.5317V25.5368Z" fill="white"/>
<path d="M183.686 26.1216C184.338 26.1216 184.753 25.9385 184.931 25.5673C185.109 25.1961 185.203 24.5961 185.203 23.7723V19.384C185.203 18.5551 185.237 17.7873 185.306 17.0856L183.508 17.1669V15.1584C184.585 15.1584 185.46 15.077 186.126 14.9194C186.793 14.7617 187.238 14.5736 187.46 14.3651H188.848V23.5893C188.848 24.4334 188.814 25.2114 188.744 25.9131C189.293 25.8623 189.846 25.8318 190.414 25.8318V27.8403H183.686V26.1216ZM185.87 11.3853C185.494 10.9734 185.306 10.4649 185.306 9.86488C185.306 9.26485 185.504 8.75127 185.899 8.31904C186.294 7.88682 186.754 7.67325 187.287 7.67325C187.821 7.67325 188.295 7.88682 188.66 8.30887C189.026 8.73093 189.214 9.2496 189.214 9.86996C189.214 10.4903 189.036 10.9988 188.685 11.4056C188.334 11.8124 187.875 12.0158 187.312 12.0158C186.749 12.0158 186.25 11.8073 185.875 11.3955L185.87 11.3853Z" fill="white"/>
<path d="M192.079 26.1216C192.731 26.1216 193.146 25.9385 193.324 25.5673C193.501 25.1961 193.595 24.5961 193.595 23.7723V19.3331C193.595 18.5399 193.63 17.7924 193.699 17.0856L191.901 17.1669V15.1584C192.978 15.1584 193.852 15.077 194.519 14.9194C195.186 14.7617 195.63 14.5736 195.853 14.3651H197.112C197.112 14.4007 197.147 14.8431 197.216 15.6872H197.265C197.759 15.2804 198.372 14.9346 199.103 14.6448C199.834 14.3549 200.451 14.2075 200.965 14.2075C202.521 14.2075 203.638 14.6651 204.304 15.5804C204.971 16.4957 205.307 17.9856 205.307 20.045V23.5842C205.307 24.4283 205.273 25.2063 205.203 25.908C205.767 25.8572 206.325 25.8267 206.873 25.8267V27.8352H200.145V26.1165C200.797 26.1165 201.217 25.9335 201.405 25.5623C201.593 25.191 201.686 24.591 201.686 23.7672L201.662 20.0145C201.662 18.8501 201.504 17.9958 201.187 17.4517C200.871 16.9076 200.338 16.633 199.582 16.633C199.172 16.633 198.752 16.7245 198.322 16.9127C197.893 17.0957 197.537 17.3296 197.246 17.6144V23.5893C197.246 24.4334 197.211 25.2114 197.142 25.9131C197.69 25.8623 198.243 25.8318 198.811 25.8318V27.8403H192.084V26.1216H192.079Z" fill="white"/>
<path d="M211.284 27.4539C210.326 26.9149 209.565 26.1419 208.997 25.13C208.434 24.1181 208.152 22.913 208.152 21.5197C208.152 20.1264 208.434 18.9772 208.997 17.8585C209.56 16.7398 210.355 15.8499 211.373 15.1889C212.391 14.5278 213.542 14.1973 214.826 14.1973C215.868 14.1973 216.762 14.3651 217.508 14.7007C218.254 15.0363 218.812 15.4787 219.188 16.033C219.563 16.5872 219.751 17.1822 219.751 17.8178C219.751 18.3619 219.593 18.8297 219.276 19.2162C218.96 19.6026 218.526 19.7959 217.982 19.7959C217.439 19.7959 216.994 19.6179 216.713 19.267C216.431 18.9162 216.288 18.5195 216.288 18.0771C216.288 17.6703 216.392 17.2839 216.594 16.9127C216.441 16.5974 216.194 16.3686 215.848 16.2364C215.508 16.1042 215.162 16.0381 214.821 16.0381C213.947 16.0381 213.24 16.4499 212.702 17.2686C212.163 18.0873 211.892 19.2467 211.892 20.7417C211.892 22.2367 212.173 23.4723 212.736 24.4436C213.299 25.4148 214.194 25.8979 215.409 25.8979C216.095 25.8979 216.767 25.7148 217.439 25.3436C218.106 24.9724 218.669 24.4791 219.133 23.8639L220.314 25.0538C219.459 26.2691 218.54 27.1081 217.567 27.5657C216.589 28.0234 215.557 28.2522 214.46 28.2522C213.295 28.2522 212.237 27.9827 211.274 27.4437L211.284 27.4539Z" fill="white"/>
<path d="M222.364 27.2708C221.741 26.6098 221.425 25.7707 221.425 24.7486C221.425 23.1977 222.127 22.0231 223.53 21.2197C224.932 20.4162 226.617 19.9738 228.588 19.8874V18.5145C228.588 16.9127 228.005 16.1092 226.839 16.1092C226.083 16.1092 225.471 16.3584 224.992 16.8517C225.199 17.1008 225.298 17.4313 225.298 17.8585C225.298 18.2856 225.155 18.6619 224.873 18.9924C224.592 19.328 224.177 19.4959 223.628 19.4959C223.115 19.4959 222.714 19.323 222.423 18.9823C222.132 18.6365 221.988 18.2094 221.988 17.7009C221.988 17.0144 222.225 16.4042 222.71 15.8753C223.189 15.3465 223.841 14.9346 224.676 14.6448C225.505 14.3549 226.419 14.2075 227.412 14.2075C230.578 14.2075 232.164 15.8906 232.164 19.2569L232.139 23.5893C232.139 24.4334 232.105 25.2114 232.036 25.9131C232.599 25.8623 233.157 25.8318 233.705 25.8318V27.8403H228.854C228.82 27.6115 228.785 27.2047 228.751 26.625H228.726C227.684 27.7183 226.414 28.2624 224.927 28.2624C223.851 28.2624 222.996 27.9319 222.374 27.2708H222.364ZM228.563 24.7181V21.7587C227.555 21.8655 226.721 22.1299 226.059 22.5519C225.397 22.974 225.071 23.5486 225.071 24.2707C225.071 24.7487 225.214 25.0995 225.496 25.3283C225.777 25.5572 226.123 25.6741 226.538 25.6741C227.308 25.6741 227.985 25.3588 228.568 24.7232L228.563 24.7181Z" fill="white"/>
</svg>
