<svg width="25" height="25" viewBox="0 0 25 25" fill="none" xmlns="http://www.w3.org/2000/svg">
<path d="M14.1778 1.01257V0C19.7619 0 24.3049 4.54302 24.3049 10.1271H23.2924C23.2924 5.10176 19.2032 1.01257 14.1778 1.01257ZM19.2416 10.1271H20.2542C20.2542 6.77608 17.5289 4.05074 14.1778 4.05074V5.06331C16.9701 5.06331 19.2416 7.33482 19.2416 10.1271ZM17.7501 14.0131L23.5012 19.7643L20.5855 22.68C19.5393 23.7282 18.1227 24.3054 16.5946 24.3054C9.30584 24.3054 0 15.0005 0 7.70985C0 6.18174 0.577254 4.76471 1.62542 3.71892L4.54112 0.803218L10.2923 6.55439L6.87625 9.97044C8.40151 13.575 10.8453 16.0207 14.3297 17.4334L17.7496 14.0136L17.7501 14.0131ZM22.0695 19.7643L17.7501 15.4449L14.5804 18.6155L14.2737 18.4982C10.3037 16.9834 7.45587 14.1375 5.81051 10.0397L5.68614 9.72881L8.86103 6.55392L4.54065 2.23496L2.34082 4.43479C1.48396 5.28975 1.01209 6.45328 1.01209 7.70985C1.01209 14.409 9.89591 23.2928 16.5951 23.2928C17.8517 23.2928 19.0147 22.821 19.8692 21.9641L22.069 19.7643H22.0695Z" fill="white"/>
</svg>
