<?xml version="1.0" standalone="no"?>
<!DOCTYPE svg PUBLIC "-//W3C//DTD SVG 20010904//EN"
 "http://www.w3.org/TR/2001/REC-SVG-20010904/DTD/svg10.dtd">
<svg version="1.0" xmlns="http://www.w3.org/2000/svg"
 width="1983.000000pt" height="1983.000000pt" viewBox="0 0 1983.000000 1983.000000"
 preserveAspectRatio="xMidYMid meet">
<metadata>
Created by potrace 1.14, written by Peter Selinger 2001-2017
</metadata>
<g transform="translate(0.000000,1983.000000) scale(0.100000,-0.100000)"
fill="#000000" stroke="none">
<path d="M2850 19820 c-186 -22 -205 -25 -290 -41 -30 -6 -68 -13 -85 -15 -16
-3 -48 -10 -70 -16 -22 -6 -44 -12 -50 -14 -121 -26 -342 -102 -484 -165 -305
-136 -555 -296 -825 -529 -44 -37 -194 -188 -250 -250 -242 -269 -464 -631
-585 -955 -13 -33 -29 -76 -37 -95 -12 -31 -70 -220 -79 -260 -2 -8 -17 -82
-34 -165 -32 -161 -37 -196 -49 -320 -10 -113 -9 -14092 2 -14190 4 -44 10
-83 11 -86 2 -3 6 -27 10 -55 19 -164 75 -394 140 -574 245 -687 712 -1263
1325 -1633 52 -32 102 -62 110 -67 97 -60 407 -193 565 -243 146 -45 189 -56
340 -86 148 -29 176 -33 325 -48 101 -11 14062 -10 14167 0 46 4 93 10 105 13
13 2 43 6 68 9 25 3 56 8 70 11 14 3 34 8 45 10 198 35 489 126 680 212 88 39
266 131 297 153 14 11 29 19 32 19 7 0 88 51 96 61 3 3 12 8 20 11 15 6 240
172 295 218 509 429 871 1013 1025 1655 16 66 32 134 35 150 13 75 36 236 43
300 10 95 9 14049 -1 14150 -4 44 -9 96 -12 115 -2 19 -7 55 -10 80 -3 25 -8
52 -10 60 -2 8 -6 33 -10 54 -17 119 -101 405 -165 566 -66 165 -161 355 -235
470 -12 19 -39 62 -60 95 -190 295 -490 607 -799 827 -181 130 -444 275 -621
343 -38 15 -83 33 -100 40 -30 13 -217 74 -245 80 -8 2 -49 12 -90 23 -68 18
-103 25 -180 38 -14 3 -36 7 -50 9 -55 11 -67 13 -130 20 -36 4 -74 10 -85 13
-29 10 -14087 11 -14165 2z"/>
</g>
</svg>
