<svg width="25" height="25" viewBox="0 0 25 25" fill="none" xmlns="http://www.w3.org/2000/svg">
<g clip-path="url(#clip0_739_31)">
<path d="M2.02547 0C0.911459 0 0 0.911459 0 2.02547V22.2801C0 23.3941 0.911459 24.3056 2.02547 24.3056H22.2801C23.3941 24.3056 24.3056 23.3941 24.3056 22.2801V2.02547C24.3056 0.911459 23.3941 0 22.2801 0H2.02547ZM2.02547 0.810186H22.2801C22.9566 0.810186 23.4954 1.34896 23.4954 2.02547V22.2801C23.4954 22.9566 22.9566 23.4954 22.2801 23.4954H2.02547C1.34896 23.4954 0.810186 22.9566 0.810186 22.2801V2.02547C0.810186 1.34896 1.34896 0.810186 2.02547 0.810186ZM5.63079 3.23264C4.29399 3.23264 3.20023 4.32639 3.20023 5.65915C3.20023 6.99191 4.29399 8.08566 5.63079 8.08566C6.9676 8.08566 8.05325 6.99191 8.05325 5.65915C8.05325 4.32639 6.96355 3.23264 5.63079 3.23264ZM5.63079 4.04283C6.52605 4.04283 7.24306 4.76389 7.24306 5.65915C7.24306 6.5544 6.522 7.27547 5.63079 7.27547C4.73959 7.27547 4.01042 6.5544 4.01042 5.65915C4.01042 4.76389 4.72744 4.04283 5.63079 4.04283ZM16.2442 8.52721C14.9641 8.52721 13.9798 9.02547 13.3033 9.66552V8.80672H9.15105V20.8299H13.441V14.8791C13.441 14.1742 13.522 13.5099 13.757 13.0845C13.9919 12.6592 14.3281 12.4039 15.1262 12.4039C15.9242 12.4039 16.1389 12.6713 16.3252 13.1453C16.5116 13.6192 16.5318 14.3241 16.5318 14.9722V20.8299H20.4207V20.0197L20.8258 20.4248V14.2755C20.8258 12.7361 20.6719 11.3305 19.9954 10.257C19.3189 9.18346 18.0915 8.52721 16.2402 8.52721H16.2442ZM3.47975 8.80672V20.8299H7.77779V8.80672H3.47975ZM16.2442 9.33739C17.9213 9.33739 18.7842 9.84376 19.3148 10.6864C19.8455 11.5289 20.0197 12.7928 20.0197 14.2714V20.0156H17.3461V14.9682C17.3461 14.316 17.3542 13.5342 17.0828 12.8455C16.8114 12.1568 16.1511 11.5938 15.1302 11.5938C14.1094 11.5938 13.4086 12.0475 13.0521 12.6956C12.6956 13.3438 12.6349 14.1215 12.6349 14.8791V20.0197H9.96529V9.61691H12.4971V11.1482H13.1939L13.3073 10.9335C13.7002 10.1881 14.6968 9.33739 16.2442 9.33739ZM4.28993 9.61691H6.9676V20.0197H4.28993V9.61691Z" fill="white"/>
</g>
<defs>
<clipPath id="clip0_739_31">
<rect width="24.3056" height="24.3056" fill="white"/>
</clipPath>
</defs>
</svg>
