<svg width="25" height="22" viewBox="0 0 25 22" fill="none" xmlns="http://www.w3.org/2000/svg">
<g clip-path="url(#clip0_739_27)">
<path d="M20.1871 0.932007H7.76428C5.18654 0.932007 3.10571 2.94821 3.10571 5.4459V14.4737C3.10571 16.9714 5.18654 18.9876 7.76428 18.9876H20.1871C22.7649 18.9876 24.8457 16.9714 24.8457 14.4737V5.4459C24.8457 2.94821 22.7649 0.932007 20.1871 0.932007ZM20.1871 1.93494C21.1708 1.93494 22.0714 2.31627 22.7236 2.93787L16.5433 8.9263C15.1248 10.3007 12.8373 10.3007 11.4188 8.9263L5.22779 2.93834C5.87999 2.31627 6.78064 1.93541 7.76428 1.93541H20.1871V1.93494ZM23.8106 14.4737C23.8106 16.4095 22.1855 17.9846 20.1871 17.9846H7.76428C5.76644 17.9846 4.14079 16.41 4.14079 14.4737V5.4459C4.14079 4.82383 4.30626 4.25207 4.59646 3.74049L10.6837 9.63865C11.5945 10.5212 12.7853 10.9627 13.9757 10.9627C15.1661 10.9627 16.3569 10.5212 17.2678 9.63865L23.355 3.74049C23.6447 4.2422 23.8106 4.82383 23.8106 5.4459V14.4737ZM18.6343 21.4951C18.6343 21.7758 18.4067 21.9968 18.1165 21.9968H4.65857C2.09102 21.9968 0 19.9708 0 17.4829V6.44883C0 6.16812 0.227591 5.94713 0.517781 5.94713C0.807971 5.94713 1.03556 6.16765 1.03556 6.44883V17.4829C1.03556 19.4188 2.66072 20.9939 4.65905 20.9939H18.117C18.4067 20.9939 18.6348 21.2144 18.6348 21.4956L18.6343 21.4951Z" fill="white"/>
</g>
<defs>
<clipPath id="clip0_739_27">
<rect width="24.8457" height="21.0648" fill="white" transform="translate(0 0.932007)"/>
</clipPath>
</defs>
</svg>
